 <svg  version="1.0" xmlns="http://www.w3.org/2000/svg"  width="900.000000pt" height="282.000000pt" viewBox="0 0 900.000000 282.000000"  preserveAspectRatio="xMidYMid meet">  <g transform="translate(0.000000,282.000000) scale(0.100000,-0.100000)" fill="#784390" stroke="none"> <path d="M150 1418 l0 -1293 682 2 c376 2 727 7 781 13 54 5 120 10 146 10 27 0 65 7 84 15 20 8 51 15 69 15 18 1 44 7 58 15 14 8 37 14 52 15 14 0 39 6 55 14 29 15 87 40 113 50 8 4 29 15 45 26 17 11 37 23 45 27 31 14 108 76 173 141 67 66 113 127 156 207 56 103 71 135 71 154 0 9 7 26 15 37 8 10 15 33 15 49 0 17 7 43 15 59 8 15 15 45 15 65 0 21 7 61 15 89 13 42 15 101 12 324 -3 259 -12 359 -39 448 -6 19 -15 51 -19 70 -12 59 -69 192 -112 265 -60 99 -156 197 -260 264 -34 22 -67 45 -74 50 -7 6 -19 11 -26 11 -8 0 -20 7 -27 15 -7 8 -22 15 -34 15 -12 0 -31 7 -42 15 -10 8 -28 15 -40 15 -11 0 -29 7 -40 15 -10 8 -32 15 -47 15 -15 0 -44 7 -64 15 -19 8 -54 15 -77 15 -22 0 -68 7 -101 15 -50 12 -194 14 -837 15 l-778 0 0 -1292z m1429 194 c20 -16 39 -43 44 -62 5 -19 7 -143 5 -277 l-3 -243 -32 -32 c-31 -31 -36 -32 -115 -33 l-83 0 -3 329 c-2 250 1 332 10 344 21 25 134 9 177 -26z"/> <path d="M3028 1713 c1 -549 3 -1130 5 -1291 l2 -292 613 0 c336 0 619 0 627 0 14 0 16 50 13 455 l-3 456 25 -3 c18 -2 27 -12 34 -33 4 -16 15 -42 22 -57 8 -14 14 -34 14 -45 0 -10 7 -27 15 -37 8 -11 15 -28 15 -39 0 -10 7 -25 15 -33 8 -9 15 -25 15 -37 0 -12 7 -31 15 -41 8 -11 15 -29 15 -41 0 -31 19 -45 62 -45 30 0 38 4 38 18 0 10 7 27 15 38 8 10 15 28 15 40 0 11 7 29 15 40 8 10 15 28 15 40 0 11 7 29 15 40 8 10 15 28 15 40 0 11 7 29 15 40 8 10 15 30 15 44 1 26 41 80 60 80 7 0 10 -146 10 -460 0 -361 3 -460 13 -460 156 -2 1241 1 1243 3 2 2 5 582 6 1290 l3 1287 -641 0 -642 0 -5 -32 c-2 -18 -10 -49 -17 -68 -7 -19 -18 -51 -25 -70 -7 -19 -18 -51 -25 -70 -7 -19 -15 -48 -18 -65 -2 -16 -11 -39 -18 -50 -8 -11 -14 -31 -14 -45 -1 -14 -11 -43 -24 -65 -17 -31 -30 -41 -52 -43 -47 -5 -83 13 -89 45 -4 15 -13 40 -21 55 -8 14 -14 35 -14 45 0 11 -7 28 -15 39 -8 10 -15 29 -15 40 0 12 -7 35 -15 50 -8 16 -15 38 -15 49 0 11 -7 29 -15 39 -8 11 -15 29 -15 41 0 12 -7 30 -15 41 -8 10 -15 29 -15 42 l0 22 -637 0 -638 0 3 -997z"/> <path d="M6210 2706 c0 -2 7 -17 15 -32 8 -16 15 -48 15 -72 0 -24 5 -52 10 -62 6 -11 13 -47 16 -82 4 -35 12 -82 20 -106 8 -23 14 -59 14 -80 0 -20 7 -55 15 -77 8 -22 14 -61 15 -86 0 -26 7 -63 15 -82 8 -20 15 -56 15 -79 0 -24 7 -61 15 -83 8 -22 14 -58 15 -80 0 -22 7 -58 15 -80 8 -22 14 -58 15 -80 0 -22 7 -58 15 -80 8 -22 14 -60 15 -85 0 -25 7 -63 15 -85 8 -22 14 -58 15 -80 0 -22 7 -58 15 -80 8 -22 14 -58 15 -80 0 -22 7 -58 15 -80 8 -22 14 -58 15 -80 0 -22 7 -58 15 -80 8 -22 14 -61 15 -86 0 -26 7 -63 15 -82 8 -20 15 -56 15 -79 0 -24 7 -61 15 -83 8 -22 14 -58 15 -80 0 -22 7 -58 15 -80 8 -22 14 -63 15 -91 0 -27 5 -55 10 -60 6 -6 14 -36 18 -67 l7 -57 873 -3 872 -2 0 33 c0 18 7 49 15 69 8 19 15 56 15 82 1 25 7 64 15 86 8 22 15 60 15 85 1 25 7 63 15 85 8 22 15 60 15 85 1 25 7 63 15 85 8 22 15 59 15 82 0 24 6 60 14 80 8 21 17 68 20 105 3 38 10 77 16 87 5 11 10 39 10 63 1 24 7 61 15 83 8 22 15 60 15 85 1 25 7 63 15 85 8 22 15 56 15 76 0 20 7 58 15 85 8 27 15 68 15 92 0 23 7 59 15 79 8 19 15 56 15 82 1 25 7 64 15 86 8 22 15 60 15 85 1 25 7 63 15 85 8 22 15 56 15 76 0 20 7 58 15 85 8 27 15 67 15 89 1 22 7 58 15 80 8 22 15 59 15 82 0 23 6 62 14 85 8 24 16 64 19 91 l5 47 -571 -2 -570 -3 -3 -30 c-2 -16 -8 -141 -13 -278 -6 -136 -13 -252 -17 -258 -4 -6 -10 -123 -15 -259 -5 -137 -13 -277 -19 -312 -5 -34 -10 -129 -10 -210 0 -164 -5 -178 -65 -178 -24 0 -38 6 -45 19 -15 29 -30 188 -30 327 0 67 -5 146 -10 175 -6 30 -15 151 -21 269 -5 118 -13 249 -19 290 -5 41 -9 131 -9 199 -1 68 -6 152 -13 187 l-11 64 -624 0 c-343 0 -623 -2 -623 -4z"/> </g> </svg> 